<svg t="1693555275714" class="icon" viewBox="0 0 1024 1024" version="1.1" xmlns="http://www.w3.org/2000/svg" p-id="7358" width="200" height="200"><path d="M64.97 659.92v59.61l0.01 240.36h398.3v-398.3H64.99l-0.02 98.33z m348.53-48.55v99.58l-99.58-99.58h99.58z m-199.15 0L413.5 810.52v49.79L164.56 611.37h49.79z m-99.58 49.79L363.71 910.1h-49.79L114.77 710.95v-49.79z m0 149.36l99.58 99.58h-99.58v-99.58zM961.17 63.7h-398.3V462h398.3V63.7zM612.65 412.22v-99.58l99.58 99.58h-99.58z m199.16 0L612.65 213.07v-49.79l248.94 248.94h-49.78z m99.57-49.79L662.44 113.49h49.79l199.15 199.15v49.79z m0-149.36l-99.58-99.58h99.58v99.58zM562.87 959.89l398.3-1.86V561.59h-398.3v398.3z m99.57-298.73h199.15v199.15H662.44V661.16zM64.99 462.01h398.3V63.7H64.97l0.02 398.31z m99.57-298.73h199.15v199.15H164.56V163.28z" fill="#696969" p-id="7359"></path></svg>