<svg t="1693464824939" class="icon" viewBox="0 0 1024 1024" version="1.1" xmlns="http://www.w3.org/2000/svg" p-id="1542" width="200" height="200"><path d="M512 499.2m-413.866667 0a413.866667 413.866667 0 1 0 827.733334 0 413.866667 413.866667 0 1 0-827.733334 0Z" fill="#723FDB" p-id="1543"></path><path d="M512 934.4c-238.933333 0-435.2-196.266667-435.2-435.2S273.066667 64 512 64s435.2 196.266667 435.2 435.2S750.933333 934.4 512 934.4z m0-827.733333c-217.6 0-392.533333 174.933333-392.533333 392.533333s174.933333 392.533333 392.533333 392.533333 392.533333-174.933333 392.533333-392.533333-174.933333-392.533333-392.533333-392.533333z" fill="#301196" p-id="1544"></path><path d="M512 887.466667c-213.333333 0-388.266667-174.933333-388.266667-388.266667S298.666667 110.933333 512 110.933333s388.266667 174.933333 388.266667 388.266667-174.933333 388.266667-388.266667 388.266667z" fill="#7750E2" p-id="1545"></path><path d="M610.133333 311.466667c-51.2 0-89.6-38.4-89.6-89.6s38.4-89.6 89.6-89.6 89.6 38.4 89.6 89.6c-4.266667 51.2-42.666667 89.6-89.6 89.6z" fill="#4F2AB5" p-id="1546"></path><path d="M610.133333 221.866667m-64 0a64 64 0 1 0 128 0 64 64 0 1 0-128 0Z" fill="#D04C83" p-id="1547"></path><path d="M482.133333 439.466667c-51.2 0-89.6-38.4-89.6-89.6s38.4-89.6 89.6-89.6 89.6 38.4 89.6 89.6c-4.266667 51.2-42.666667 89.6-89.6 89.6z" fill="#4F2AB5" p-id="1548"></path><path d="M482.133333 349.866667m-64 0a64 64 0 1 0 128 0 64 64 0 1 0-128 0Z" fill="#6ED6AB" p-id="1549"></path><path d="M644.266667 494.933333c-51.2 0-89.6-38.4-89.6-89.6 0-51.2 38.4-89.6 89.6-89.6 51.2 0 89.6 38.4 89.6 89.6 0 51.2-38.4 89.6-89.6 89.6z" fill="#4F2AB5" p-id="1550"></path><path d="M644.266667 405.333333m-64 0a64 64 0 1 0 128 0 64 64 0 1 0-128 0Z" fill="#EDC35B" p-id="1551"></path></svg>